# xmcd
#
# Track frame offsets: 
#        150
#        11155
#        23563
#        36570
#        52582
#        67765
#        80285
#        94103
#        109014
#        122908
#        134961
#        137795
#        143236
#        152413
#        179559
#
# Disc length: 3646 seconds
#
# Revision: 0
# Processed by: cddbd v1.5.2PL0 Copyright (c) Steve Scherf et al.
# Submitted via: ExactAudioCopy v1.1
#
DISCID=ca0e3c0f
DTITLE=Wim Leys - Altijd En Overal
DYEAR=2010
DGENRE=Rock and Roll
TTITLE0=Rocking In The Street (Met Ruth McKenny)
TTITLE1=Shout! Shout!
TTITLE2=Geruzie En Getwist
TTITLE3=Negen Maanden
TTITLE4=Ik Volg Je Spoor
TTITLE5='k Wil Actie
TTITLE6=Het Restaurant (Kaatje)
TTITLE7=Verona
TTITLE8=Muziek Is M'n Hele Leven
TTITLE9=Happy Days
TTITLE10=Let's Have A Party
TTITLE11=Blue Suède Shoes
TTITLE12=Great Balls Of Fire
TTITLE13=Leve De Liefde (Met @Fundum)
TTITLE14=Clip Rocking In The Street (Met Ruth McKenny)
EXTD=
EXTT0=
EXTT1=
EXTT2=
EXTT3=
EXTT4=
EXTT5=
EXTT6=
EXTT7=
EXTT8=
EXTT9=
EXTT10=
EXTT11=
EXTT12=
EXTT13=
EXTT14=
PLAYORDER=
